<svg xmlns="http://www.w3.org/2000/svg" viewBox="0 0 250 250" role="img" aria-label="Classic Breakout board artwork">
  <defs>
    <linearGradient id="background" x1="28" x2="222" y1="14" y2="236" gradientUnits="userSpaceOnUse">
      <stop stop-color="#111827"/>
      <stop offset="1" stop-color="#27305f"/>
    </linearGradient>
    <linearGradient id="shine" x1="54" x2="196" y1="32" y2="210" gradientUnits="userSpaceOnUse">
      <stop stop-color="#ffffff" stop-opacity=".24"/>
      <stop offset=".5" stop-color="#ffffff" stop-opacity=".03"/>
      <stop offset="1" stop-color="#ffffff" stop-opacity=".12"/>
    </linearGradient>
    <filter id="shadow" x="-20%" y="-20%" width="140%" height="145%">
      <feDropShadow dx="0" dy="14" stdDeviation="12" flood-color="#06111f" flood-opacity=".38"/>
    </filter>
  </defs>
  <rect width="250" height="250" fill="#f8fafc"/>
  <rect x="30" y="20" width="190" height="210" rx="18" fill="url(#background)" filter="url(#shadow)"/>
  <rect x="43" y="34" width="164" height="182" rx="10" fill="#141c36"/>
  <path d="M58 49h134v152H58z" fill="#1b2748"/>
  <g opacity=".42" stroke="#3f4f7a" stroke-width="1">
    <path d="M58 77h134M58 105h134M58 133h134M58 161h134M58 189h134"/>
    <path d="M85 49v152M112 49v152M139 49v152M166 49v152"/>
  </g>
  <g stroke="#0b1020" stroke-opacity=".4" stroke-width="2">
    <rect x="64" y="61" width="20" height="10" rx="3" fill="#ef4444"/>
    <rect x="88" y="61" width="20" height="10" rx="3" fill="#ef4444"/>
    <rect x="112" y="61" width="20" height="10" rx="3" fill="#ef4444"/>
    <rect x="136" y="61" width="20" height="10" rx="3" fill="#ef4444"/>
    <rect x="160" y="61" width="20" height="10" rx="3" fill="#ef4444"/>
    <rect x="64" y="78" width="20" height="10" rx="3" fill="#f97316"/>
    <rect x="88" y="78" width="20" height="10" rx="3" fill="#f97316"/>
    <rect x="112" y="78" width="20" height="10" rx="3" fill="#f97316"/>
    <rect x="136" y="78" width="20" height="10" rx="3" fill="#f97316"/>
    <rect x="160" y="78" width="20" height="10" rx="3" fill="#f97316"/>
    <rect x="64" y="95" width="20" height="10" rx="3" fill="#eab308"/>
    <rect x="88" y="95" width="20" height="10" rx="3" fill="#eab308"/>
    <rect x="112" y="95" width="20" height="10" rx="3" fill="#eab308"/>
    <rect x="136" y="95" width="20" height="10" rx="3" fill="#eab308"/>
    <rect x="160" y="95" width="20" height="10" rx="3" fill="#eab308"/>
    <rect x="64" y="112" width="20" height="10" rx="3" fill="#22c55e"/>
    <rect x="88" y="112" width="20" height="10" rx="3" fill="#22c55e"/>
    <rect x="112" y="112" width="20" height="10" rx="3" fill="#22c55e"/>
    <rect x="136" y="112" width="20" height="10" rx="3" fill="#22c55e"/>
    <rect x="160" y="112" width="20" height="10" rx="3" fill="#22c55e"/>
    <rect x="88" y="129" width="20" height="10" rx="3" fill="#38bdf8"/>
    <rect x="112" y="129" width="20" height="10" rx="3" fill="#38bdf8"/>
    <rect x="136" y="129" width="20" height="10" rx="3" fill="#38bdf8"/>
  </g>
  <circle cx="151" cy="155" r="5" fill="#fef3c7"/>
  <path d="M150 160 123 185" stroke="#fef3c7" stroke-opacity=".42" stroke-width="2" stroke-linecap="round"/>
  <rect x="91" y="188" width="68" height="10" rx="5" fill="#22d3ee" stroke="#0b1020" stroke-opacity=".36" stroke-width="2"/>
  <rect x="43" y="34" width="164" height="182" rx="10" fill="url(#shine)"/>
  <circle cx="178" cy="57" r="4" fill="#f8fafc" opacity=".72"/>
  <circle cx="190" cy="57" r="4" fill="#f8fafc" opacity=".32"/>
</svg>
